<svg width="60" height="12" viewBox="0 0 60 12" fill="none" xmlns="http://www.w3.org/2000/svg">
<path d="M12 6C12 7.18669 11.6481 8.34673 10.9888 9.33342C10.3295 10.3201 9.39246 11.0891 8.2961 11.5433C7.19975 11.9974 5.99335 12.1162 4.82946 11.8847C3.66558 11.6532 2.59648 11.0818 1.75736 10.2426C0.918247 9.40352 0.346802 8.33443 0.115291 7.17054C-0.11622 6.00665 0.00259969 4.80026 0.456725 3.7039C0.910851 2.60754 1.67989 1.67047 2.66658 1.01118C3.65328 0.351894 4.81332 0 6 0C7.5913 0 9.11742 0.632142 10.2426 1.75736C11.3679 2.88258 12 4.4087 12 6ZM54 0C52.8133 0 51.6533 0.351894 50.6666 1.01118C49.6799 1.67047 48.9108 2.60754 48.4567 3.7039C48.0026 4.80026 47.8838 6.00665 48.1153 7.17054C48.3468 8.33443 48.9182 9.40352 49.7574 10.2426C50.5965 11.0818 51.6656 11.6532 52.8295 11.8847C53.9933 12.1162 55.1997 11.9974 56.2961 11.5433C57.3925 11.0891 58.3295 10.3201 58.9888 9.33342C59.6481 8.34673 60 7.18669 60 6C60 4.4087 59.3679 2.88258 58.2426 1.75736C57.1174 0.632142 55.5913 0 54 0ZM30 0C28.8133 0 27.6533 0.351894 26.6666 1.01118C25.6799 1.67047 24.9108 2.60754 24.4567 3.7039C24.0026 4.80026 23.8838 6.00665 24.1153 7.17054C24.3468 8.33443 24.9182 9.40352 25.7574 10.2426C26.5965 11.0818 27.6656 11.6532 28.8295 11.8847C29.9933 12.1162 31.1997 11.9974 32.2961 11.5433C33.3925 11.0891 34.3295 10.3201 34.9888 9.33342C35.6481 8.34673 36 7.18669 36 6C36 4.4087 35.3679 2.88258 34.2426 1.75736C33.1174 0.632142 31.5913 0 30 0V0Z" fill="#BEBEBE" fill-opacity="0.521"/>
</svg>
